<svg width="3840" height="2160" viewBox="0 0 3840 2160" fill="none" xmlns="http://www.w3.org/2000/svg">
  <defs>
    <linearGradient id="bg" x1="240" y1="120" x2="3560" y2="2080" gradientUnits="userSpaceOnUse">
      <stop offset="0" stop-color="#120E09"/>
      <stop offset="0.48" stop-color="#16120D"/>
      <stop offset="1" stop-color="#1D1711"/>
    </linearGradient>
    <radialGradient id="glow-gold" cx="0" cy="0" r="1" gradientUnits="userSpaceOnUse" gradientTransform="translate(520 260) rotate(28) scale(980 760)">
      <stop stop-color="#F6B366" stop-opacity="0.18"/>
      <stop offset="1" stop-color="#F6B366" stop-opacity="0"/>
    </radialGradient>
    <radialGradient id="glow-blue" cx="0" cy="0" r="1" gradientUnits="userSpaceOnUse" gradientTransform="translate(2910 420) rotate(16) scale(1160 760)">
      <stop stop-color="#7BB5FF" stop-opacity="0.12"/>
      <stop offset="1" stop-color="#7BB5FF" stop-opacity="0"/>
    </radialGradient>
    <radialGradient id="glow-green" cx="0" cy="0" r="1" gradientUnits="userSpaceOnUse" gradientTransform="translate(1420 1710) rotate(-12) scale(1080 820)">
      <stop stop-color="#59D7A2" stop-opacity="0.14"/>
      <stop offset="1" stop-color="#59D7A2" stop-opacity="0"/>
    </radialGradient>
    <pattern id="grid" width="44" height="44" patternUnits="userSpaceOnUse">
      <path d="M44 0L0 0 0 44" stroke="#FFF4E8" stroke-opacity="0.04" stroke-width="1"/>
    </pattern>
    <filter id="panelShadow" x="-30%" y="-30%" width="160%" height="160%">
      <feDropShadow dx="0" dy="16" stdDeviation="22" flood-color="#000000" flood-opacity="0.30"/>
    </filter>
    <filter id="boxShadow" x="-30%" y="-30%" width="160%" height="160%">
      <feDropShadow dx="0" dy="10" stdDeviation="16" flood-color="#040302" flood-opacity="0.28"/>
    </filter>
    <marker id="arrowGold" markerWidth="18" markerHeight="18" refX="12" refY="6" orient="auto">
      <path d="M0,0 L12,6 L0,12 Z" fill="#FFC37A"/>
    </marker>
    <marker id="arrowLight" markerWidth="18" markerHeight="18" refX="12" refY="6" orient="auto">
      <path d="M0,0 L12,6 L0,12 Z" fill="#E7F0FF"/>
    </marker>
    <marker id="arrowGreen" markerWidth="18" markerHeight="18" refX="12" refY="6" orient="auto">
      <path d="M0,0 L12,6 L0,12 Z" fill="#7BE2B4"/>
    </marker>
    <style>
      .title {
        fill: #FFF9F3;
        font-family: "Avenir Next", "SF Pro Display", "PingFang SC", "Hiragino Sans GB", "Microsoft YaHei", sans-serif;
        font-size: 74px;
        font-weight: 700;
        letter-spacing: -0.045em;
      }
      .subtitle {
        fill: #D7C7B6;
        font-family: "Avenir Next", "PingFang SC", "Microsoft YaHei", sans-serif;
        font-size: 28px;
        font-weight: 500;
      }
      .kicker {
        fill: #FFCC8B;
        font-family: "Avenir Next", "SF Pro Display", sans-serif;
        font-size: 18px;
        font-weight: 800;
        letter-spacing: 0.18em;
      }
      .panelTitle {
        fill: #FFF8F0;
        font-family: "Avenir Next", "PingFang SC", "Microsoft YaHei", sans-serif;
        font-size: 34px;
        font-weight: 700;
        letter-spacing: -0.03em;
      }
      .panelNote {
        fill: #C8B9A8;
        font-family: "Avenir Next", "PingFang SC", "Microsoft YaHei", sans-serif;
        font-size: 20px;
        font-weight: 500;
      }
      .boxTitle {
        fill: #FFFDF8;
        font-family: "Avenir Next", "PingFang SC", "Microsoft YaHei", sans-serif;
        font-size: 24px;
        font-weight: 700;
        letter-spacing: -0.02em;
      }
      .boxBody {
        fill: #D0D9EA;
        font-family: "Avenir Next", "PingFang SC", "Microsoft YaHei", sans-serif;
        font-size: 18px;
        font-weight: 500;
      }
      .boxMini {
        fill: #AFBFD8;
        font-family: "Avenir Next", "PingFang SC", "Microsoft YaHei", sans-serif;
        font-size: 16px;
        font-weight: 600;
      }
      .legend {
        fill: #F7F4EF;
        font-family: "Avenir Next", "PingFang SC", sans-serif;
        font-size: 20px;
        font-weight: 600;
      }
      .badge {
        fill: #21160C;
        font-family: "Avenir Next", "PingFang SC", sans-serif;
        font-size: 14px;
        font-weight: 800;
        letter-spacing: 0.08em;
      }
      .sectionLabel {
        fill: #102337;
        font-family: "Avenir Next", "PingFang SC", sans-serif;
        font-size: 15px;
        font-weight: 800;
        letter-spacing: 0.08em;
      }
      .metric {
        fill: #FFF8EF;
        font-family: "Avenir Next", "PingFang SC", sans-serif;
        font-size: 18px;
        font-weight: 700;
      }
    </style>
  </defs>

  <rect width="3840" height="2160" fill="url(#bg)"/>
  <rect width="3840" height="2160" fill="url(#grid)"/>
  <rect width="3840" height="2160" fill="url(#glow-gold)"/>
  <rect width="3840" height="2160" fill="url(#glow-blue)"/>
  <rect width="3840" height="2160" fill="url(#glow-green)"/>

  <g>
    <text class="title" x="110" y="128">我是王牌资产顾问 · 全景 ER + 架构超级总图</text>
    <text class="subtitle" x="110" y="178">Selling Houses / World Model / Opportunity / Good House Model / Deal Fact / Projection / Persistence</text>
    <text class="subtitle" x="110" y="218">按 2026-04-21 当前文档与代码收口：既画目标形态，也显式标出当前最小已实现骨架。</text>

    <rect x="2850" y="76" width="870" height="196" rx="30" fill="#241A10" fill-opacity="0.88" stroke="#74512D" stroke-width="2"/>
    <text class="kicker" x="2898" y="128">READING GUIDE</text>
    <line x1="2898" y1="164" x2="2994" y2="164" stroke="#FFC37A" stroke-width="4" marker-end="url(#arrowGold)"/>
    <text class="legend" x="3028" y="171">当前代码已形成的主骨架 / 主链路</text>
    <line x1="2898" y1="210" x2="2994" y2="210" stroke="#E7F0FF" stroke-width="4" stroke-dasharray="14 10" marker-end="url(#arrowLight)"/>
    <text class="legend" x="3028" y="217">目标架构或文档已收口、待继续迁移</text>
    <rect x="2898" y="228" width="126" height="28" rx="14" fill="#D8F5E6"/>
    <text class="badge" x="2928" y="247">MODEL</text>
    <text class="legend" x="3044" y="248">模型输出 / 评估器，不应直接当原始世界字段</text>
  </g>

  <g filter="url(#panelShadow)">
    <rect x="110" y="300" width="1180" height="530" rx="38" fill="#23180F" fill-opacity="0.92" stroke="#7A5734" stroke-width="2"/>
    <text class="kicker" x="160" y="356">RUNTIME BACKBONE</text>
    <text class="panelTitle" x="160" y="404">运行时主骨架</text>
    <text class="panelNote" x="160" y="440">当前最关键的开发主链是 `useGame -> gameState -> engine -> operatingProjection -> repository/save/settlement`。</text>

    <g filter="url(#boxShadow)">
      <rect x="160" y="494" width="186" height="124" rx="22" fill="#362515" stroke="#FFC37A" stroke-width="2"/>
      <text class="boxTitle" x="186" y="537">Workspace UI</text>
      <text class="boxBody" x="186" y="568">Dashboard / Cases</text>
      <text class="boxBody" x="186" y="595">Market / Review / Result</text>
    </g>
    <g filter="url(#boxShadow)">
      <rect x="388" y="494" width="172" height="124" rx="22" fill="#362515" stroke="#FFC37A" stroke-width="2"/>
      <text class="boxTitle" x="414" y="537">useGame</text>
      <text class="boxBody" x="414" y="568">玩家上下文</text>
      <text class="boxBody" x="414" y="595">resume / hydrate</text>
    </g>
    <g filter="url(#boxShadow)">
      <rect x="602" y="494" width="184" height="124" rx="22" fill="#362515" stroke="#FFC37A" stroke-width="2"/>
      <text class="boxTitle" x="628" y="537">gameState</text>
      <text class="boxBody" x="628" y="568">剧本展开 / 世界初始化</text>
      <text class="boxBody" x="628" y="595">客户池 / 市场影子</text>
    </g>
    <g filter="url(#boxShadow)">
      <rect x="828" y="494" width="198" height="124" rx="22" fill="#362515" stroke="#FFC37A" stroke-width="2"/>
      <text class="boxTitle" x="854" y="537">engine</text>
      <text class="boxBody" x="854" y="568">advanceDay / policies</text>
      <text class="boxBody" x="854" y="595">matter / opportunity / deal</text>
    </g>
    <g filter="url(#boxShadow)">
      <rect x="1068" y="494" width="176" height="124" rx="22" fill="#362515" stroke="#FFC37A" stroke-width="2"/>
      <text class="boxTitle" x="1094" y="537">Projection</text>
      <text class="boxBody" x="1094" y="568">operatingProjection</text>
      <text class="boxBody" x="1094" y="595">页面信息投影</text>
    </g>

    <line x1="346" y1="556" x2="388" y2="556" stroke="#FFC37A" stroke-width="4" marker-end="url(#arrowGold)"/>
    <line x1="560" y1="556" x2="602" y2="556" stroke="#FFC37A" stroke-width="4" marker-end="url(#arrowGold)"/>
    <line x1="786" y1="556" x2="828" y2="556" stroke="#FFC37A" stroke-width="4" marker-end="url(#arrowGold)"/>
    <line x1="1026" y1="556" x2="1068" y2="556" stroke="#FFC37A" stroke-width="4" marker-end="url(#arrowGold)"/>

    <g filter="url(#boxShadow)">
      <rect x="250" y="674" width="284" height="112" rx="22" fill="#19283E" stroke="#E7F0FF" stroke-width="2"/>
      <text class="boxTitle" x="278" y="716">Player Context</text>
      <text class="boxBody" x="278" y="746">accountId / playerProfileId / workspaceId</text>
      <text class="boxBody" x="278" y="772">旧 `userId` 只保兼容 bridge</text>
    </g>
    <g filter="url(#boxShadow)">
      <rect x="574" y="674" width="324" height="112" rx="22" fill="#19283E" stroke="#E7F0FF" stroke-width="2"/>
      <text class="boxTitle" x="602" y="716">Persistence</text>
      <text class="boxBody" x="602" y="746">`maintainer_game_runs.save_data` 为主真相</text>
      <text class="boxBody" x="602" y="772">Neon / File / Cloud sync / shadow tables</text>
    </g>
  </g>

  <g filter="url(#panelShadow)">
    <rect x="1330" y="300" width="2400" height="830" rx="40" fill="#1E1914" fill-opacity="0.94" stroke="#705239" stroke-width="2"/>
    <text class="kicker" x="1380" y="356">WORLD ER</text>
    <text class="panelTitle" x="1380" y="404">世界层全景实体关系</text>
    <text class="panelNote" x="1380" y="440">`World` 是真相；玩家只是绑定到 `Broker Actor` 的视角。`Opportunity = CustomerCaseRelation`，成交通过 `ClosedDealRecord` 独立落账。</text>

    <g filter="url(#boxShadow)">
      <rect x="1380" y="500" width="208" height="124" rx="22" fill="#362515" stroke="#FFC37A" stroke-width="2"/>
      <text class="boxTitle" x="1408" y="544">World</text>
      <text class="boxBody" x="1408" y="574">worldId / day / scenario / seed</text>
      <text class="boxBody" x="1408" y="601">唯一真实运行时</text>
    </g>
    <g filter="url(#boxShadow)">
      <rect x="1630" y="500" width="188" height="124" rx="22" fill="#362515" stroke="#FFC37A" stroke-width="2"/>
      <text class="boxTitle" x="1658" y="544">Actor</text>
      <text class="boxBody" x="1658" y="574">Broker / Owner / Customer</text>
      <text class="boxBody" x="1658" y="601">Rival / Regulator</text>
    </g>
    <g filter="url(#boxShadow)">
      <rect x="1860" y="500" width="246" height="124" rx="22" fill="#362515" stroke="#E7F0FF" stroke-width="2" stroke-dasharray="14 10"/>
      <text class="boxTitle" x="1888" y="544">Organization</text>
      <text class="boxBody" x="1888" y="574">Company / Brand / ACN</text>
      <text class="boxBody" x="1888" y="601">Store / BizAreaManager</text>
    </g>
    <g filter="url(#boxShadow)">
      <rect x="2148" y="500" width="178" height="124" rx="22" fill="#362515" stroke="#FFC37A" stroke-width="2"/>
      <text class="boxTitle" x="2176" y="544">Case</text>
      <text class="boxBody" x="2176" y="574">房源主体</text>
      <text class="boxBody" x="2176" y="601">profile + runtime</text>
    </g>
    <g filter="url(#boxShadow)">
      <rect x="2368" y="500" width="238" height="124" rx="22" fill="#362515" stroke="#FFC37A" stroke-width="2"/>
      <text class="boxTitle" x="2396" y="544">OwnershipEntrust</text>
      <text class="boxBody" x="2396" y="574">Owner × Broker × Case</text>
      <text class="boxBody" x="2396" y="601">trust / patience / urgency</text>
    </g>
    <g filter="url(#boxShadow)">
      <rect x="2648" y="500" width="258" height="124" rx="22" fill="#362515" stroke="#FFC37A" stroke-width="2"/>
      <text class="boxTitle" x="2676" y="544">BrokerOwnerRelation</text>
      <text class="boxBody" x="2676" y="574">经纪人维护业主关系</text>
      <text class="boxBody" x="2676" y="601">maintenance / trust / primary</text>
    </g>
    <g filter="url(#boxShadow)">
      <rect x="2948" y="500" width="274" height="124" rx="22" fill="#362515" stroke="#FFC37A" stroke-width="2"/>
      <text class="boxTitle" x="2976" y="544">BrokerCustomerRelation</text>
      <text class="boxBody" x="2976" y="574">经纪人维护客户关系</text>
      <text class="boxBody" x="2976" y="601">trust / response / primary</text>
    </g>
    <g filter="url(#boxShadow)">
      <rect x="3264" y="500" width="344" height="124" rx="22" fill="#362515" stroke="#FFC37A" stroke-width="2"/>
      <text class="boxTitle" x="3292" y="544">CustomerCaseRelation = Opportunity</text>
      <text class="boxBody" x="3292" y="574">fit / affordability / intent / confidence</text>
      <text class="boxBody" x="3292" y="601">stage / lifecycleStatus / rivalPull / compareRank</text>
    </g>

    <line x1="1588" y1="562" x2="1630" y2="562" stroke="#FFC37A" stroke-width="4" marker-end="url(#arrowGold)"/>
    <line x1="1818" y1="562" x2="1860" y2="562" stroke="#E7F0FF" stroke-width="4" stroke-dasharray="14 10" marker-end="url(#arrowLight)"/>
    <line x1="2106" y1="562" x2="2148" y2="562" stroke="#FFC37A" stroke-width="4" marker-end="url(#arrowGold)"/>
    <line x1="2326" y1="562" x2="2368" y2="562" stroke="#FFC37A" stroke-width="4" marker-end="url(#arrowGold)"/>
    <line x1="2606" y1="562" x2="2648" y2="562" stroke="#FFC37A" stroke-width="4" marker-end="url(#arrowGold)"/>
    <line x1="2906" y1="562" x2="2948" y2="562" stroke="#FFC37A" stroke-width="4" marker-end="url(#arrowGold)"/>
    <line x1="3222" y1="562" x2="3264" y2="562" stroke="#FFC37A" stroke-width="4" marker-end="url(#arrowGold)"/>

    <g filter="url(#boxShadow)">
      <rect x="1516" y="688" width="250" height="108" rx="20" fill="#1B2A3E" stroke="#E7F0FF" stroke-width="2" stroke-dasharray="14 10"/>
      <text class="boxTitle" x="1542" y="730">PlatformCaseCustomerMatch</text>
      <text class="boxBody" x="1542" y="760">平台匿名匹配结果</text>
      <text class="boxBody" x="1542" y="786">可算，不等于前台可见客户</text>
    </g>
    <g filter="url(#boxShadow)">
      <rect x="1810" y="688" width="252" height="108" rx="20" fill="#1B2A3E" stroke="#59D7A2" stroke-width="2"/>
      <text class="boxTitle" x="1836" y="730">Matter</text>
      <text class="boxBody" x="1836" y="760">scene / template / presentation</text>
      <text class="boxBody" x="1836" y="786">工作单元，不是最终真相</text>
    </g>
    <g filter="url(#boxShadow)">
      <rect x="2106" y="688" width="224" height="108" rx="20" fill="#1B2A3E" stroke="#FFC37A" stroke-width="2"/>
      <text class="boxTitle" x="2132" y="730">WorldEvent</text>
      <text class="boxBody" x="2132" y="760">发生过的事实链</text>
      <text class="boxBody" x="2132" y="786">action / market / close</text>
    </g>
    <g filter="url(#boxShadow)">
      <rect x="2374" y="688" width="248" height="108" rx="20" fill="#1B2A3E" stroke="#FFC37A" stroke-width="2"/>
      <text class="boxTitle" x="2400" y="730">DealClosingEvaluation</text>
      <text class="boxBody" x="2400" y="760">closeReadiness / probability</text>
      <text class="boxBody" x="2400" y="786">今天能不能收口</text>
    </g>
    <g filter="url(#boxShadow)">
      <rect x="2666" y="688" width="278" height="108" rx="20" fill="#1B2A3E" stroke="#FFC37A" stroke-width="2"/>
      <text class="boxTitle" x="2692" y="730">ClosedDealRecord</text>
      <text class="boxBody" x="2692" y="760">dealType / price / marketSnapshot</text>
      <text class="boxBody" x="2692" y="786">正式成交事实，结算与榜单都消费它</text>
    </g>
    <g filter="url(#boxShadow)">
      <rect x="2988" y="688" width="236" height="108" rx="20" fill="#1B2A3E" stroke="#E7F0FF" stroke-width="2" stroke-dasharray="14 10"/>
      <text class="boxTitle" x="3014" y="730">Session / Viewport</text>
      <text class="boxBody" x="3014" y="760">selectedCase / tab / filter</text>
      <text class="boxBody" x="3014" y="786">只承载玩家视角态</text>
    </g>
    <g filter="url(#boxShadow)">
      <rect x="3268" y="688" width="332" height="108" rx="20" fill="#1B2A3E" stroke="#E7F0FF" stroke-width="2"/>
      <text class="boxTitle" x="3294" y="730">Projection</text>
      <text class="boxBody" x="3294" y="760">dashboard / case detail / market intel</text>
      <text class="boxBody" x="3294" y="786">给页面看的总结，不应回写世界真相</text>
    </g>

    <path d="M 3440 624 C 3440 646 2512 646 2512 688" stroke="#FFC37A" stroke-width="4" marker-end="url(#arrowGold)" fill="none"/>
    <path d="M 3440 624 C 3440 646 2190 646 2190 688" stroke="#FFC37A" stroke-width="4" marker-end="url(#arrowGold)" fill="none"/>
    <path d="M 1950 624 C 1950 646 1950 646 1936 688" stroke="#59D7A2" stroke-width="4" marker-end="url(#arrowGreen)" fill="none"/>
    <path d="M 2512 796 C 2512 826 2805 826 2805 796" stroke="#FFC37A" stroke-width="4" marker-end="url(#arrowGold)" fill="none"/>
    <path d="M 2805 796 C 2805 836 3434 836 3434 796" stroke="#E7F0FF" stroke-width="4" stroke-dasharray="14 10" marker-end="url(#arrowLight)" fill="none"/>
    <path d="M 2148 624 C 2148 658 1638 658 1638 688" stroke="#E7F0FF" stroke-width="4" stroke-dasharray="14 10" marker-end="url(#arrowLight)" fill="none"/>

    <rect x="1380" y="848" width="2220" height="228" rx="28" fill="#18120D" stroke="#56402E" stroke-width="2"/>
    <text class="boxMini" x="1410" y="888">世界层骨架补充</text>
    <text class="boxBody" x="1410" y="922">1. `CustomerProfile` / `CustomerRuntimeState` / `BrokerCustomerRelation` / `CustomerCaseRelation` 是四层拆分，不应混掉。</text>
    <text class="boxBody" x="1410" y="956">2. `OwnershipEntrust` 承载这套房上的 owner-broker-case 出售关系；`BrokerOwnerRelation` 承载经纪人长期维护业主关系。</text>
    <text class="boxBody" x="1410" y="990">3. `OpportunityStage` 只走到 `offer`；成交不回写成 `stage = closed`，而是通过 `DealClosingEvaluation -> ClosedDealRecord` 落账。</text>
    <text class="boxBody" x="1410" y="1024">4. 同 ACN 内房源可公开、客户不公开；平台可算全量匹配，但不能等同前台可见客户池。</text>
  </g>

  <g filter="url(#panelShadow)">
    <rect x="110" y="870" width="1450" height="770" rx="40" fill="#12241E" fill-opacity="0.94" stroke="#2C7B60" stroke-width="2"/>
    <text class="kicker" x="160" y="926" fill="#8DE8C1">GOOD HOUSE MODEL</text>
    <text class="panelTitle" x="160" y="972">好房模型 / 好房分 / 竞争力评分</text>
    <text class="panelNote" x="160" y="1008">好房模型是独立评估器，不替代价格模型，不替代机会推进概率；当前代码以 `d1 / d2 / d3 -> competitiveness` 运行。</text>

    <g filter="url(#boxShadow)">
      <rect x="160" y="1066" width="404" height="238" rx="24" fill="#173329" stroke="#59D7A2" stroke-width="2"/>
      <text class="boxTitle" x="188" y="1108">D1 准客池 / 客户储备</text>
      <text class="boxBody" x="188" y="1144">文档完整口径：</text>
      <text class="boxBody" x="188" y="1174">预算覆盖度 / 需求匹配度</text>
      <text class="boxBody" x="188" y="1204">平台匹配规模 / 可触达规模</text>
      <text class="boxBody" x="188" y="1234">有效关系量 / 关系质量</text>
      <text class="boxBody" x="188" y="1264">注意力稳定度</text>
    </g>
    <g filter="url(#boxShadow)">
      <rect x="610" y="1066" width="404" height="238" rx="24" fill="#173329" stroke="#59D7A2" stroke-width="2"/>
      <text class="boxTitle" x="638" y="1108">D2 房屋吸引力 / 房子条件</text>
      <text class="boxBody" x="638" y="1144">文档完整口径：</text>
      <text class="boxBody" x="638" y="1174">区域吸引力 / 户型适销性</text>
      <text class="boxBody" x="638" y="1204">物理产品力 / 卖点标签</text>
      <text class="boxBody" x="638" y="1234">曝光表现 / 缺点与竞品惩罚</text>
      <text class="boxBody" x="638" y="1264">当前代码映射到 `axisScores`</text>
    </g>
    <g filter="url(#boxShadow)">
      <rect x="1060" y="1066" width="450" height="238" rx="24" fill="#173329" stroke="#59D7A2" stroke-width="2"/>
      <text class="boxTitle" x="1088" y="1108">D3 业主意愿 / 业主配合</text>
      <text class="boxBody" x="1088" y="1144">文档完整口径：</text>
      <text class="boxBody" x="1088" y="1174">trust / patience / urgency</text>
      <text class="boxBody" x="1088" y="1204">priceFlexibility / actionCooperation</text>
      <text class="boxBody" x="1088" y="1234">strategyAlignment</text>
      <text class="boxBody" x="1088" y="1264">当前代码用 trust / patience / urgency / 价格灵活度近似实现</text>
    </g>

    <g filter="url(#boxShadow)">
      <rect x="276" y="1344" width="1118" height="118" rx="24" fill="#D8F5E6"/>
      <text class="sectionLabel" x="324" y="1390">CURRENT CODE FORMULA</text>
      <text class="metric" x="542" y="1394">competitiveness = 0.50 * d1 + 0.25 * d2 + 0.25 * d3</text>
      <text class="boxMini" x="324" y="1432">来源：`src/selling-houses/domain/scoring.ts` 与 `domain/config/balance.ts`</text>
    </g>

    <path d="M 564 1185 C 596 1185 610 1185 610 1185" stroke="#59D7A2" stroke-width="4" marker-end="url(#arrowGreen)" fill="none"/>
    <path d="M 1014 1185 C 1034 1185 1040 1185 1060 1185" stroke="#59D7A2" stroke-width="4" marker-end="url(#arrowGreen)" fill="none"/>
    <path d="M 360 1304 C 360 1326 472 1326 472 1344" stroke="#59D7A2" stroke-width="4" marker-end="url(#arrowGreen)" fill="none"/>
    <path d="M 810 1304 C 810 1326 834 1326 834 1344" stroke="#59D7A2" stroke-width="4" marker-end="url(#arrowGreen)" fill="none"/>
    <path d="M 1285 1304 C 1285 1326 1198 1326 1198 1344" stroke="#59D7A2" stroke-width="4" marker-end="url(#arrowGreen)" fill="none"/>

    <rect x="160" y="1498" width="1350" height="98" rx="22" fill="#163028" stroke="#347A61" stroke-width="2"/>
    <text class="boxBody" x="190" y="1540">当前实现里 `d1 / d2 / d3` 已经直接挂在 `Case` 上运行；更理想的口径是把它视为 `GoodHouseModelOutput`，不要和原始房源画像字段混掉。</text>
    <text class="boxBody" x="190" y="1572">字段归属上，`goodHouseScore`、`caseOpportunityScore`、`potentialCustomerCount` 都应当被视为模型输出或平台匹配输出，而不是客户或房源原始字段。</text>
  </g>

  <g filter="url(#panelShadow)">
    <rect x="1600" y="1170" width="1040" height="470" rx="38" fill="#181F31" fill-opacity="0.94" stroke="#4F648A" stroke-width="2"/>
    <text class="kicker" x="1650" y="1226" fill="#AFCBFF">OPPORTUNITY CHAIN</text>
    <text class="panelTitle" x="1650" y="1272">客户与机会主链</text>
    <text class="panelNote" x="1650" y="1308">机会不是独立 Actor，而是 `Customer × Case` 形成的 `CustomerCaseRelation`。推进主线只到 `offer`。</text>

    <g filter="url(#boxShadow)">
      <rect x="1650" y="1374" width="220" height="96" rx="20" fill="#1E2B43" stroke="#E7F0FF" stroke-width="2" stroke-dasharray="14 10"/>
      <text class="boxTitle" x="1676" y="1412">CustomerProfile</text>
      <text class="boxBody" x="1676" y="1440">预算 / 偏好 / 决策风格</text>
    </g>
    <g filter="url(#boxShadow)">
      <rect x="1904" y="1374" width="240" height="96" rx="20" fill="#1E2B43" stroke="#E7F0FF" stroke-width="2" stroke-dasharray="14 10"/>
      <text class="boxTitle" x="1930" y="1412">CustomerRuntime</text>
      <text class="boxBody" x="1930" y="1440">活跃 / 疲劳 / 注意力 / churn</text>
    </g>
    <g filter="url(#boxShadow)">
      <rect x="2178" y="1374" width="210" height="96" rx="20" fill="#1E2B43" stroke="#FFC37A" stroke-width="2"/>
      <text class="boxTitle" x="2204" y="1412">BrokerCustomer</text>
      <text class="boxBody" x="2204" y="1440">trust / response / primary</text>
    </g>
    <g filter="url(#boxShadow)">
      <rect x="2422" y="1374" width="186" height="96" rx="20" fill="#1E2B43" stroke="#FFC37A" stroke-width="2"/>
      <text class="boxTitle" x="2448" y="1412">Case</text>
      <text class="boxBody" x="2448" y="1440">房源 / 价格 / heat</text>
    </g>
    <g filter="url(#boxShadow)">
      <rect x="1818" y="1510" width="608" height="102" rx="22" fill="#CBE2FF"/>
      <text class="sectionLabel" x="1866" y="1552">CUSTOMER_CASE_RELATION = OPPORTUNITY</text>
      <text class="metric" x="1866" y="1588">fit / affordability / intent / confidence / stage / lifecycleStatus / compareRank / rivalPullScore</text>
    </g>

    <line x1="1870" y1="1422" x2="1904" y2="1422" stroke="#E7F0FF" stroke-width="4" stroke-dasharray="14 10" marker-end="url(#arrowLight)"/>
    <line x1="2144" y1="1422" x2="2178" y2="1422" stroke="#E7F0FF" stroke-width="4" stroke-dasharray="14 10" marker-end="url(#arrowLight)"/>
    <path d="M 2283 1470 C 2283 1490 2120 1490 2120 1510" stroke="#FFC37A" stroke-width="4" marker-end="url(#arrowGold)" fill="none"/>
    <path d="M 2515 1470 C 2515 1490 2280 1490 2280 1510" stroke="#FFC37A" stroke-width="4" marker-end="url(#arrowGold)" fill="none"/>
    <path d="M 1760 1470 C 1760 1490 1945 1490 1945 1510" stroke="#E7F0FF" stroke-width="4" stroke-dasharray="14 10" marker-end="url(#arrowLight)" fill="none"/>
    <path d="M 2024 1470 C 2024 1490 2010 1490 2010 1510" stroke="#E7F0FF" stroke-width="4" stroke-dasharray="14 10" marker-end="url(#arrowLight)" fill="none"/>

    <rect x="1650" y="1328" width="884" height="30" rx="15" fill="#FFE2B2"/>
    <text class="sectionLabel" x="1708" y="1348">online-inquiry -> interested -> first-showing-booked -> shown -> second-showing -> owner-meeting -> offer</text>
  </g>

  <g filter="url(#panelShadow)">
    <rect x="2680" y="1170" width="1050" height="470" rx="38" fill="#231A11" fill-opacity="0.94" stroke="#7A5734" stroke-width="2"/>
    <text class="kicker" x="2730" y="1226">DEAL CHAIN</text>
    <text class="panelTitle" x="2730" y="1272">成交判定与正式成交事实</text>
    <text class="panelNote" x="2730" y="1308">成交不是把机会改成 `closed`，而是生成一条正式世界事实；结算、市场统计、榜单都应消费它。</text>

    <g filter="url(#boxShadow)">
      <rect x="2730" y="1380" width="246" height="98" rx="20" fill="#382515" stroke="#FFC37A" stroke-width="2"/>
      <text class="boxTitle" x="2756" y="1420">Offer Window</text>
      <text class="boxBody" x="2756" y="1448">机会已进入收口前窗口</text>
    </g>
    <g filter="url(#boxShadow)">
      <rect x="3018" y="1380" width="250" height="98" rx="20" fill="#382515" stroke="#FFC37A" stroke-width="2"/>
      <text class="boxTitle" x="3044" y="1420">DealClosingEvaluation</text>
      <text class="boxBody" x="3044" y="1448">eligibility / readiness / probability</text>
    </g>
    <g filter="url(#boxShadow)">
      <rect x="3310" y="1380" width="372" height="98" rx="20" fill="#382515" stroke="#FFC37A" stroke-width="2"/>
      <text class="boxTitle" x="3336" y="1420">ClosedDealRecord</text>
      <text class="boxBody" x="3336" y="1448">dealType / dealPrice / supportingReasons / marketSnapshot / priceSnapshot</text>
    </g>

    <line x1="2976" y1="1429" x2="3018" y2="1429" stroke="#FFC37A" stroke-width="4" marker-end="url(#arrowGold)"/>
    <line x1="3268" y1="1429" x2="3310" y2="1429" stroke="#FFC37A" stroke-width="4" marker-end="url(#arrowGold)"/>

    <rect x="2730" y="1512" width="952" height="88" rx="22" fill="#FFE2B2"/>
    <text class="sectionLabel" x="2778" y="1550">DEAL TYPES</text>
    <text class="metric" x="2910" y="1554">self_closed / internal_cosale_closed / external_competitor_closed / platform_matched_closed</text>
    <text class="boxMini" x="2778" y="1588">当前代码已落最小事实层；组织归因、品牌归因、市场快照后续可继续加在这条记录上，而不是再发明新对象。</text>
  </g>

  <g filter="url(#panelShadow)">
    <rect x="1600" y="1668" width="2130" height="362" rx="40" fill="#1A2030" fill-opacity="0.94" stroke="#50627F" stroke-width="2"/>
    <text class="kicker" x="1650" y="1724" fill="#BFD4FF">PLATFORM / RESULT / PERSISTENCE</text>
    <text class="panelTitle" x="1650" y="1770">平台层、结果层、投影层与持久化链路</text>
    <text class="panelNote" x="1650" y="1806">卖房运行态当前以 run saveData 为主真相，正式结果与榜单只吃结算和成交事实，不直接读 UI 态。</text>

    <g filter="url(#boxShadow)">
      <rect x="1650" y="1854" width="224" height="106" rx="20" fill="#1F2D46" stroke="#E7F0FF" stroke-width="2"/>
      <text class="boxTitle" x="1676" y="1894">Account</text>
      <text class="boxBody" x="1676" y="1924">平台登录身份</text>
      <text class="boxBody" x="1676" y="1950">email / permission</text>
    </g>
    <g filter="url(#boxShadow)">
      <rect x="1914" y="1854" width="246" height="106" rx="20" fill="#1F2D46" stroke="#E7F0FF" stroke-width="2"/>
      <text class="boxTitle" x="1940" y="1894">PlayerProfile</text>
      <text class="boxBody" x="1940" y="1924">seller workspace 玩家身份</text>
      <text class="boxBody" x="1940" y="1950">accountId / playerProfileId</text>
    </g>
    <g filter="url(#boxShadow)">
      <rect x="2200" y="1854" width="246" height="106" rx="20" fill="#1F2D46" stroke="#FFC37A" stroke-width="2"/>
      <text class="boxTitle" x="2226" y="1894">GameRun</text>
      <text class="boxBody" x="2226" y="1924">runId / saveData / syncVersion</text>
      <text class="boxBody" x="2226" y="1950">resume / CAS / cloud</text>
    </g>
    <g filter="url(#boxShadow)">
      <rect x="2486" y="1854" width="214" height="106" rx="20" fill="#1F2D46" stroke="#E7F0FF" stroke-width="2"/>
      <text class="boxTitle" x="2512" y="1894">RunResult</text>
      <text class="boxBody" x="2512" y="1924">正式结算结果</text>
      <text class="boxBody" x="2512" y="1950">score / grade / highlights</text>
    </g>
    <g filter="url(#boxShadow)">
      <rect x="2740" y="1854" width="254" height="106" rx="20" fill="#1F2D46" stroke="#E7F0FF" stroke-width="2"/>
      <text class="boxTitle" x="2766" y="1894">PlayerCareerStats</text>
      <text class="boxBody" x="2766" y="1924">长期累计</text>
      <text class="boxBody" x="2766" y="1950">best / total / count</text>
    </g>
    <g filter="url(#boxShadow)">
      <rect x="3034" y="1854" width="238" height="106" rx="20" fill="#1F2D46" stroke="#E7F0FF" stroke-width="2"/>
      <text class="boxTitle" x="3060" y="1894">LeaderboardEntry</text>
      <text class="boxBody" x="3060" y="1924">榜单记录</text>
      <text class="boxBody" x="3060" y="1950">只吃正式结算</text>
    </g>
    <g filter="url(#boxShadow)">
      <rect x="3312" y="1854" width="378" height="106" rx="20" fill="#1F2D46" stroke="#E7F0FF" stroke-width="2"/>
      <text class="boxTitle" x="3338" y="1894">Projection / Shadow Tables / File Fallback</text>
      <text class="boxBody" x="3338" y="1924">dashboard / case detail / leaderboard projection / shadow sync</text>
      <text class="boxBody" x="3338" y="1950">必须可重建，不能反向定义业务真相</text>
    </g>

    <line x1="1874" y1="1908" x2="1914" y2="1908" stroke="#E7F0FF" stroke-width="4" marker-end="url(#arrowLight)"/>
    <line x1="2160" y1="1908" x2="2200" y2="1908" stroke="#FFC37A" stroke-width="4" marker-end="url(#arrowGold)"/>
    <line x1="2446" y1="1908" x2="2486" y2="1908" stroke="#E7F0FF" stroke-width="4" marker-end="url(#arrowLight)"/>
    <line x1="2700" y1="1908" x2="2740" y2="1908" stroke="#E7F0FF" stroke-width="4" marker-end="url(#arrowLight)"/>
    <line x1="2994" y1="1908" x2="3034" y2="1908" stroke="#E7F0FF" stroke-width="4" marker-end="url(#arrowLight)"/>
  </g>

  <g>
    <path d="M 1140 1638 C 1140 1708 1754 1714 1754 1854" stroke="#59D7A2" stroke-width="5" marker-end="url(#arrowGreen)" fill="none"/>
    <path d="M 3324 796 C 3324 918 3310 1070 3310 1380" stroke="#FFC37A" stroke-width="5" marker-end="url(#arrowGold)" fill="none"/>
    <path d="M 2805 796 C 2805 918 2592 1070 2592 1854" stroke="#E7F0FF" stroke-width="4" marker-end="url(#arrowLight)" fill="none"/>
    <path d="M 2150 1612 C 2150 1652 2280 1652 2280 1854" stroke="#E7F0FF" stroke-width="4" marker-end="url(#arrowLight)" fill="none"/>
  </g>

  <g filter="url(#panelShadow)">
    <rect x="110" y="1670" width="1450" height="360" rx="40" fill="#241A10" fill-opacity="0.94" stroke="#7A5734" stroke-width="2"/>
    <text class="kicker" x="160" y="1726">MATTER / MARKET / UI READING</text>
    <text class="panelTitle" x="160" y="1772">事项、市场、页面责任补充</text>
    <text class="panelNote" x="160" y="1808">这部分不是另一套真相，而是解释“系统怎么运转，页面怎么读世界”。</text>

    <text class="boxBody" x="160" y="1860">1. Matter 双轴：`scene` 回答这是什么业务事，`template` 回答怎么处理；当前 `template = dialog | form | schedule | realtime`。</text>
    <text class="boxBody" x="160" y="1898">2. 开放日类 Matter 属于 `scene = open_house`、`template = realtime`、`presentation = full-screen`；成交本身不是 Matter，而是 `ClosedDealRecord`。</text>
    <text class="boxBody" x="160" y="1936">3. 页面职责：首页排顺序；`Cases` 讲单盘问题与下一步；`Market` 讲外因；`Review/Result` 消费事实与结算，不反向驱动世界。</text>
    <text class="boxBody" x="160" y="1974">4. `operatingProjection` 是页面信息架构的执行形态：把 world / relation / event / market shadow 转成 dashboard、case detail、opportunity list、market intel。</text>
  </g>
</svg>
